<svg width="17" height="17" viewBox="0 0 17 17" fill="none" xmlns="http://www.w3.org/2000/svg">
<path d="M9.92772 7.63672C10.2945 7.63672 10.5918 7.33941 10.5918 6.97266C10.5918 6.6059 10.2945 6.30859 9.92772 6.30859C9.56097 6.30859 9.26366 6.6059 9.26366 6.97266C9.26366 7.33941 9.56097 7.63672 9.92772 7.63672Z" fill="white"/>
<path d="M9.92772 10.5254C10.2945 10.5254 10.5918 10.2281 10.5918 9.86133C10.5918 9.49458 10.2945 9.19727 9.92772 9.19727C9.56097 9.19727 9.26366 9.49458 9.26366 9.86133C9.26366 10.2281 9.56097 10.5254 9.92772 10.5254Z" fill="white"/>
<path d="M12.8164 7.63672C13.1831 7.63672 13.4805 7.33941 13.4805 6.97266C13.4805 6.6059 13.1831 6.30859 12.8164 6.30859C12.4496 6.30859 12.1523 6.6059 12.1523 6.97266C12.1523 7.33941 12.4496 7.63672 12.8164 7.63672Z" fill="white"/>
<path d="M16.3359 8.30077C16.7027 8.30077 17 8.00347 17 7.6367V3.98437C17 2.51971 15.8084 1.32812 14.3437 1.32812H13.4804V0.664061C13.4804 0.2973 13.1831 0 12.8164 0C12.4496 0 12.1523 0.2973 12.1523 0.664061V1.32812H9.13084V0.664061C9.13084 0.2973 8.83354 0 8.46678 0C8.10002 0 7.80272 0.2973 7.80272 0.664061V1.32812H4.81444V0.664061C4.81444 0.2973 4.51714 0 4.15038 0C3.78362 0 3.48632 0.2973 3.48632 0.664061V1.32812H2.65624C1.19159 1.32812 0 2.51971 0 3.98437V14.3437C0 15.8084 1.19159 17 2.65624 17H11.0234C11.046 17 11.0684 16.9988 11.0904 16.9966C11.1123 16.9987 11.1342 17 11.1561 17C11.3331 17 11.5069 16.9291 11.6346 16.7965L16.8142 11.4176C16.999 11.2258 17.0512 10.9421 16.947 10.6971C16.8428 10.4521 16.6022 10.2929 16.3359 10.2929H13.1484C11.6838 10.2929 10.4922 11.4845 10.4922 12.9492V15.6718H2.65624C1.92392 15.6718 1.32812 15.076 1.32812 14.3437V3.98437C1.32812 3.25204 1.92392 2.65624 2.65624 2.65624H3.48632V3.32031C3.48632 3.68707 3.78362 3.98437 4.15038 3.98437C4.51714 3.98437 4.81444 3.68707 4.81444 3.32031V2.65624H7.80272V3.32031C7.80272 3.68707 8.10002 3.98437 8.46678 3.98437C8.83354 3.98437 9.13084 3.68707 9.13084 3.32031V2.65624H12.1523V3.32031C12.1523 3.68707 12.4496 3.98437 12.8164 3.98437C13.1831 3.98437 13.4804 3.68707 13.4804 3.32031V2.65624H14.3437C15.076 2.65624 15.6718 3.25204 15.6718 3.98437V7.6367C15.6718 8.00347 15.9691 8.30077 16.3359 8.30077ZM11.8203 12.9492C11.8203 12.2169 12.4161 11.6211 13.1484 11.6211H14.7745L11.8203 14.689V12.9492Z" fill="white"/>
<path d="M4.15039 7.63672C4.51714 7.63672 4.81445 7.33941 4.81445 6.97266C4.81445 6.6059 4.51714 6.30859 4.15039 6.30859C3.78364 6.30859 3.48633 6.6059 3.48633 6.97266C3.48633 7.33941 3.78364 7.63672 4.15039 7.63672Z" fill="white"/>
<path d="M7.03905 10.5254C7.4058 10.5254 7.70311 10.2281 7.70311 9.86133C7.70311 9.49458 7.4058 9.19727 7.03905 9.19727C6.6723 9.19727 6.37498 9.49458 6.37498 9.86133C6.37498 10.2281 6.6723 10.5254 7.03905 10.5254Z" fill="white"/>
<path d="M4.15039 13.4141C4.51714 13.4141 4.81445 13.1168 4.81445 12.75C4.81445 12.3832 4.51714 12.0859 4.15039 12.0859C3.78364 12.0859 3.48633 12.3832 3.48633 12.75C3.48633 13.1168 3.78364 13.4141 4.15039 13.4141Z" fill="white"/>
<path d="M4.15039 10.5254C4.51714 10.5254 4.81445 10.2281 4.81445 9.86133C4.81445 9.49458 4.51714 9.19727 4.15039 9.19727C3.78364 9.19727 3.48633 9.49458 3.48633 9.86133C3.48633 10.2281 3.78364 10.5254 4.15039 10.5254Z" fill="white"/>
<path d="M7.03905 13.4141C7.4058 13.4141 7.70311 13.1168 7.70311 12.75C7.70311 12.3832 7.4058 12.0859 7.03905 12.0859C6.6723 12.0859 6.37498 12.3832 6.37498 12.75C6.37498 13.1168 6.6723 13.4141 7.03905 13.4141Z" fill="white"/>
<path d="M7.03905 7.63672C7.4058 7.63672 7.70311 7.33941 7.70311 6.97266C7.70311 6.6059 7.4058 6.30859 7.03905 6.30859C6.6723 6.30859 6.37498 6.6059 6.37498 6.97266C6.37498 7.33941 6.6723 7.63672 7.03905 7.63672Z" fill="white"/>
</svg>
