<?xml version="1.0" encoding="utf-8"?><svg width="17" height="17" fill="none" xmlns="http://www.w3.org/2000/svg" viewBox="0 0 17 17"><path d="M9.928 7.637a.664.664 0 100-1.328.664.664 0 000 1.328zM9.928 10.525a.664.664 0 100-1.328.664.664 0 000 1.328zM12.816 7.637a.664.664 0 100-1.329.664.664 0 000 1.329z" fill="#fff"/><path d="M16.336 8.3A.664.664 0 0017 7.638V3.984a2.66 2.66 0 00-2.656-2.656h-.864V.664a.664.664 0 10-1.328 0v.664H9.131V.664a.664.664 0 10-1.328 0v.664H4.814V.664a.664.664 0 10-1.328 0v.664h-.83A2.66 2.66 0 000 3.984v10.36A2.66 2.66 0 002.656 17h8.367a.674.674 0 00.067-.003.664.664 0 00.544-.2l5.18-5.38a.664.664 0 00-.478-1.124h-3.188a2.66 2.66 0 00-2.656 2.656v2.723H2.656a1.33 1.33 0 01-1.328-1.328V3.984a1.33 1.33 0 011.328-1.328h.83v.664a.664.664 0 101.328 0v-.664h2.989v.664a.664.664 0 101.328 0v-.664h3.021v.664a.664.664 0 101.328 0v-.664h.864a1.33 1.33 0 011.328 1.328v3.653c0 .366.297.664.664.664zm-4.516 4.65a1.33 1.33 0 011.328-1.329h1.627L11.82 14.69v-1.74z" fill="#fff"/><path d="M4.15 7.637a.664.664 0 100-1.328.664.664 0 000 1.328zM7.039 10.525a.664.664 0 100-1.328.664.664 0 000 1.328zM4.15 13.414a.664.664 0 100-1.328.664.664 0 000 1.328zM4.15 10.525a.664.664 0 100-1.328.664.664 0 000 1.328zM7.039 13.414a.664.664 0 100-1.328.664.664 0 000 1.328zM7.039 7.637a.664.664 0 100-1.328.664.664 0 000 1.328z" fill="#fff"/></svg>