<?xml version="1.0" encoding="utf-8"?><svg viewBox="0 0 30 30" xmlns="http://www.w3.org/2000/svg" xmlns:xlink="http://www.w3.org/1999/xlink"><style>:root>svg{display:none}:root>svg:target{display:block}</style><svg fill="none" viewBox="0 0 8 6" id="Vector" xmlns="http://www.w3.org/2000/svg"><path d="M4 .72a.559.559 0 00-.396.164l-3.44 3.44a.56.56 0 10.792.792L4 2.072l3.044 3.044a.56.56 0 00.792-.792L4.396.884A.559.559 0 004 .72z" fill="#222B32"/></svg><svg fill="none" viewBox="0 0 6 10" id="ic_arr-right" xmlns="http://www.w3.org/2000/svg"><path d="M5.214 5c0 .18-.063.358-.188.495l-3.933 4.3a.603.603 0 01-.905 0 .747.747 0 010-.99L3.668 5 .188 1.195a.747.747 0 010-.99.602.602 0 01.906 0l3.933 4.3A.733.733 0 015.214 5z" fill="#222B32"/></svg><svg fill="none" viewBox="0 0 17 17" id="ic_calendar" xmlns="http://www.w3.org/2000/svg"><path d="M9.928 7.637a.664.664 0 100-1.328.664.664 0 000 1.328zM9.928 10.525a.664.664 0 100-1.328.664.664 0 000 1.328zM12.816 7.637a.664.664 0 100-1.329.664.664 0 000 1.329z" fill="#fff"/><path d="M16.336 8.3A.664.664 0 0017 7.638V3.984a2.66 2.66 0 00-2.656-2.656h-.864V.664a.664.664 0 10-1.328 0v.664H9.131V.664a.664.664 0 10-1.328 0v.664H4.814V.664a.664.664 0 10-1.328 0v.664h-.83A2.66 2.66 0 000 3.984v10.36A2.66 2.66 0 002.656 17h8.367a.674.674 0 00.067-.003.664.664 0 00.544-.2l5.18-5.38a.664.664 0 00-.478-1.124h-3.188a2.66 2.66 0 00-2.656 2.656v2.723H2.656a1.33 1.33 0 01-1.328-1.328V3.984a1.33 1.33 0 011.328-1.328h.83v.664a.664.664 0 101.328 0v-.664h2.989v.664a.664.664 0 101.328 0v-.664h3.021v.664a.664.664 0 101.328 0v-.664h.864a1.33 1.33 0 011.328 1.328v3.653c0 .366.297.664.664.664zm-4.516 4.65a1.33 1.33 0 011.328-1.329h1.627L11.82 14.69v-1.74z" fill="#fff"/><path d="M4.15 7.637a.664.664 0 100-1.328.664.664 0 000 1.328zM7.039 10.525a.664.664 0 100-1.328.664.664 0 000 1.328zM4.15 13.414a.664.664 0 100-1.328.664.664 0 000 1.328zM4.15 10.525a.664.664 0 100-1.328.664.664 0 000 1.328zM7.039 13.414a.664.664 0 100-1.328.664.664 0 000 1.328zM7.039 7.637a.664.664 0 100-1.328.664.664 0 000 1.328z" fill="#fff"/></svg><svg fill="none" viewBox="0 0 18 18" id="ic_cross" xmlns="http://www.w3.org/2000/svg"><path d="M13.5 4.5l-9 9m0-9l9 9" stroke="silver"/></svg><svg fill="none" viewBox="0 0 24 24" id="ic_dl" xmlns="http://www.w3.org/2000/svg"><path d="M23.312 11.7c-.382 0-.687.33-.687.742v6.75c0 1.835-1.386 3.324-3.082 3.324H4.457c-1.701 0-3.082-1.495-3.082-3.325v-6.859c0-.412-.305-.742-.687-.742-.382 0-.688.33-.688.742v6.86C0 21.845 2.002 24 4.457 24h15.086C22.003 24 24 21.84 24 19.191v-6.749c0-.407-.306-.742-.688-.742z" fill="#fff"/><path d="M11.516 18.109c.132.143.31.22.484.22a.647.647 0 00.484-.22l4.37-4.716a.782.782 0 000-1.05.65.65 0 00-.973 0l-3.194 3.452V.742C12.687.33 12.382 0 12 0c-.382 0-.688.33-.688.742v15.053l-3.198-3.451a.65.65 0 00-.973 0 .782.782 0 000 1.05l4.375 4.715z" fill="#fff"/></svg><svg viewBox="0 0 9 17" id="ic_fb" xmlns="http://www.w3.org/2000/svg"><path d="M8.216 0H7.198c-2.83 0-5.134 2.015-5.134 4.492v1.896H.324c-.179 0-.324.127-.324.284v2.272c0 .156.145.284.324.284h1.74v6.956c0 .157.146.284.325.284h2.595c.18 0 .325-.127.325-.284V9.228H7.89c.179 0 .324-.128.324-.284V6.672c0-.157-.145-.284-.324-.284H5.309V4.492c0-.911.847-1.653 1.889-1.653h1.018c.18 0 .325-.127.325-.284V.284C8.54.127 8.395 0 8.216 0z"/></svg><svg fill="none" viewBox="0 0 19 18" id="ic_filter" xmlns="http://www.w3.org/2000/svg"><path fill="#9C938C" d="M1.9 2h15.2v2H1.9zM4.75 6H17.1v2H4.75zM7.6 10h9.5v2H7.6zM10.45 14h6.65v2h-6.65z"/></svg><svg viewBox="0 0 18 17" id="ic_gps" xmlns="http://www.w3.org/2000/svg"><path d="M9.347 5.41a3.09 3.09 0 100 6.18 3.09 3.09 0 100-6.18zm6.908 2.317a6.95 6.95 0 00-6.136-6.135V0H8.574v1.592a6.95 6.95 0 00-6.135 6.135H.847v1.546h1.592a6.95 6.95 0 006.135 6.135V17h1.545v-1.592a6.95 6.95 0 006.136-6.135h1.592V7.727h-1.592zM9.347 13.91a5.41 5.41 0 010-10.818 5.41 5.41 0 010 10.818z"/></svg><svg viewBox="0 0 30 26" id="ic_heart" xmlns="http://www.w3.org/2000/svg"><path d="M21.494.582a8.43 8.43 0 00-6.494 3 8.316 8.316 0 00-6.494-3A8.506 8.506 0 000 9.088C0 17.138 14.05 25 14.62 25.303c.23.154.53.154.76 0C15.95 25 30 17.253 30 9.088A8.506 8.506 0 0021.494.582zM15 23.784C12.797 22.494 1.519 15.62 1.519 9.088a6.987 6.987 0 016.987-6.987 6.835 6.835 0 015.848 3.152.798.798 0 001.292 0A6.987 6.987 0 0128.48 9.088c0 6.608-11.279 13.443-13.481 14.696z"/></svg><svg viewBox="0 0 24 24" id="ic_heart-solid" xmlns="http://www.w3.org/2000/svg"><path d="M17.192 2.565h.003A6.305 6.305 0 0123.5 8.87c0 1.49-.643 3.002-1.672 4.46-1.027 1.455-2.41 2.818-3.826 4.001-2.83 2.366-5.721 3.957-5.933 4.07l-.022.012-.02.014a.047.047 0 01-.053 0l-.02-.014-.023-.012c-.21-.111-3.1-1.726-5.932-4.103-1.416-1.189-2.8-2.555-3.827-4.007C1.142 11.836.5 10.336.5 8.871a6.305 6.305 0 016.305-6.306h.006a6.153 6.153 0 014.804 2.22l.383.46.384-.458a6.244 6.244 0 014.81-2.222z"/></svg><svg viewBox="0 0 20 21" id="ic_ig" xmlns="http://www.w3.org/2000/svg"><path d="M10.004 5.295a5.122 5.122 0 00-5.13 5.13 5.122 5.122 0 005.13 5.129c2.84 0 5.13-2.29 5.13-5.13 0-2.839-2.29-5.13-5.13-5.13zm0 8.464a3.34 3.34 0 01-3.334-3.335 3.338 3.338 0 013.334-3.335 3.338 3.338 0 013.335 3.335 3.34 3.34 0 01-3.335 3.335zm6.536-8.674c0 .665-.536 1.196-1.196 1.196a1.197 1.197 0 111.196-1.196zm3.397 1.214c-.076-1.602-.442-3.022-1.616-4.192C17.151.937 15.732.572 14.13.491c-1.651-.094-6.602-.094-8.254 0-1.598.076-3.018.442-4.192 1.612C.509 3.273.147 4.693.067 6.295c-.094 1.652-.094 6.603 0 8.254.076 1.603.442 3.023 1.616 4.192 1.174 1.17 2.59 1.536 4.192 1.616 1.652.094 6.603.094 8.254 0 1.603-.076 3.023-.442 4.192-1.616 1.17-1.17 1.536-2.59 1.616-4.192.094-1.651.094-6.598 0-8.25zm-2.134 10.023a3.376 3.376 0 01-1.901 1.901c-1.317.523-4.442.402-5.898.402-1.455 0-4.584.116-5.897-.402a3.377 3.377 0 01-1.902-1.901c-.522-1.317-.401-4.442-.401-5.898 0-1.455-.117-4.585.401-5.897a3.376 3.376 0 011.902-1.902c1.317-.522 4.442-.402 5.897-.402 1.456 0 4.585-.116 5.898.402a3.376 3.376 0 011.902 1.902c.522 1.317.401 4.442.401 5.897 0 1.456.12 4.585-.401 5.898z"/></svg><svg fill="none" viewBox="0 0 30 30" id="ic_image" xmlns="http://www.w3.org/2000/svg"><g clip-path="url(#lclip0)" fill="#9C938C"><path d="M21.816 30c-.21 0-.425-.026-.637-.082L1.849 24.74A2.523 2.523 0 01.083 21.68l2.44-9.09a.625.625 0 011.208.322L1.29 22a1.269 1.269 0 00.888 1.536l19.32 5.174a1.244 1.244 0 001.522-.88l.976-3.618a.626.626 0 011.207.325l-.974 3.613A2.497 2.497 0 0121.816 30z"/><path d="M27.5 22.5h-20A2.503 2.503 0 015 20V5c0-1.379 1.121-2.5 2.5-2.5h20C28.879 2.5 30 3.621 30 5v15c0 1.379-1.121 2.5-2.5 2.5zM7.5 3.75c-.689 0-1.25.561-1.25 1.25v15c0 .689.561 1.25 1.25 1.25h20c.689 0 1.25-.561 1.25-1.25V5c0-.689-.561-1.25-1.25-1.25h-20z"/><path d="M11.25 11.25a2.503 2.503 0 01-2.5-2.5c0-1.379 1.121-2.5 2.5-2.5s2.5 1.121 2.5 2.5-1.121 2.5-2.5 2.5zm0-3.75c-.689 0-1.25.561-1.25 1.25S10.561 10 11.25 10s1.25-.561 1.25-1.25-.561-1.25-1.25-1.25zM5.713 21.163a.625.625 0 01-.443-1.066l5.904-5.905c.708-.707 1.944-.707 2.651 0l1.758 1.758 4.865-5.837c.354-.424.873-.67 1.427-.675h.014c.547 0 1.066.237 1.424.653l6.537 7.628a.624.624 0 11-.949.813l-6.537-7.627a.619.619 0 00-.475-.217c-.13-.012-.359.078-.48.224l-5.304 6.364a.623.623 0 01-.452.224.602.602 0 01-.47-.183l-2.242-2.24a.642.642 0 00-.883 0L6.154 20.98a.623.623 0 01-.441.183z"/></g><defs><clipPath id="lclip0"><path fill="#fff" d="M0 0h30v30H0z"/></clipPath></defs></svg><svg viewBox="0 0 30 30" id="ic_loupe" xmlns="http://www.w3.org/2000/svg"><path d="M29.817 28.933l-9.128-9.128a11.813 11.813 0 003.061-7.93C23.75 5.327 18.423 0 11.875 0S0 5.327 0 11.875 5.327 23.75 11.875 23.75c3.05 0 5.825-1.165 7.93-3.061l9.128 9.128a.623.623 0 00.884 0 .625.625 0 000-.884zM11.875 22.5C6.017 22.5 1.25 17.734 1.25 11.875S6.017 1.25 11.875 1.25 22.5 6.016 22.5 11.875 17.733 22.5 11.875 22.5z"/></svg><svg fill="none" viewBox="0 0 17 15" id="ic_ok" xmlns="http://www.w3.org/2000/svg"><path d="M6 14.166c.215 0 .43-.082.594-.246L16.688 1.435A.84.84 0 0015.5.246L6 12.137 1.434 7.572A.84.84 0 00.246 8.76l5.16 5.16c.164.164.379.246.594.246z" fill="#9C938C"/></svg><svg viewBox="0 0 21 29" id="ic_pen" xmlns="http://www.w3.org/2000/svg"><path d="M20.918 10.46C20.918 16.235 10.46 29 10.46 29S0 16.236 0 10.46C0 4.682 4.683 0 10.46 0c5.776 0 10.458 4.683 10.458 10.46z"/></svg><svg viewBox="0 0 24 24" id="ic_phone" xmlns="http://www.w3.org/2000/svg"><g clip-path="url(#pclip0)"><path d="M4.89 15.954c2.368 2.83 5.217 5.057 8.47 6.634 1.238.586 2.894 1.283 4.739 1.402.114.005.224.01.338.01 1.238 0 2.233-.428 3.044-1.308a.108.108 0 00.02-.025c.288-.348.616-.661.96-.994.233-.224.472-.458.7-.697 1.06-1.104 1.06-2.506-.01-3.575l-2.988-2.99c-.508-.526-1.114-.805-1.75-.805-.637 0-1.249.279-1.771.801l-1.78 1.78c-.165-.094-.334-.179-.493-.258a6.118 6.118 0 01-.547-.299c-1.621-1.03-3.093-2.372-4.5-4.098-.712-.9-1.19-1.655-1.522-2.426.467-.423.905-.866 1.328-1.298.149-.154.303-.309.457-.463.537-.537.826-1.159.826-1.79 0-.632-.284-1.253-.826-1.79L8.103 2.283c-.174-.174-.338-.344-.507-.518a27.27 27.27 0 00-1.01-1C6.074.265 5.472 0 4.836 0c-.632 0-1.239.264-1.77.77l-1.86 1.86a3.821 3.821 0 00-1.14 2.447c-.094 1.19.125 2.452.692 3.979.87 2.362 2.183 4.555 4.132 6.898zM1.28 5.182a2.63 2.63 0 01.79-1.69l1.85-1.85c.29-.28.607-.424.916-.424.303 0 .611.145.895.433.333.308.646.632.985.975.169.174.343.348.517.527l1.482 1.482c.308.308.467.622.467.93 0 .308-.159.621-.467.93l-.463.467c-.462.468-.895.91-1.372 1.333l-.025.025c-.413.413-.348.806-.249 1.104l.015.04c.383.92.915 1.795 1.746 2.84 1.492 1.84 3.063 3.267 4.794 4.366.213.139.442.248.656.358.199.1.383.194.547.298l.055.03c.164.084.323.124.482.124.398 0 .657-.253.741-.338l1.86-1.86c.289-.288.602-.442.91-.442.378 0 .687.233.88.442l3 2.994c.596.597.591 1.243-.016 1.875-.209.224-.427.438-.661.661-.348.338-.711.687-1.04 1.08-.571.616-1.253.905-2.133.905-.084 0-.174-.006-.259-.01-1.63-.105-3.147-.741-4.286-1.284-3.094-1.496-5.809-3.62-8.062-6.315-1.855-2.233-3.103-4.312-3.928-6.54-.513-1.367-.707-2.466-.627-3.466z"/></g><defs><clipPath id="pclip0"><path d="M0 0h24v24H0z"/></clipPath></defs></svg><svg fill="none" viewBox="0 0 14 14" id="ic_planer" xmlns="http://www.w3.org/2000/svg"><path d="M3.911 10.608l9.597-3.536a.359.359 0 00.23-.373.355.355 0 00-.303-.316l-5.038-.72-.72-5.037A.356.356 0 006.99.552L3.453 10.15a.357.357 0 00.458.459z" fill="#fff"/><path d="M3.911 10.608l9.597-3.536a.359.359 0 00.23-.373.355.355 0 00-.303-.316l-5.038-.72-.72-5.037A.356.356 0 006.99.552L3.453 10.15a.357.357 0 00.458.459z" fill="url(#qpaint0_linear)"/><defs><linearGradient id="qpaint0_linear" x1="10.354" y1="10.272" x2="3.788" y2="3.706" gradientUnits="userSpaceOnUse"><stop stop-color="#fff"/><stop offset="1" stop-color="#fff" stop-opacity="0"/></linearGradient></defs></svg><svg fill="none" viewBox="0 0 30 30" id="ic_plus" xmlns="http://www.w3.org/2000/svg"><path stroke="#fff" stroke-width="2" d="M15 0v30M0 15h30"/></svg><svg fill="none" viewBox="0 0 7 14" id="ic_swiper-next" xmlns="http://www.w3.org/2000/svg"><path d="M7 7.287c0 .24-.084.482-.252.665l-5.28 5.773a.81.81 0 01-1.216 0 1.003 1.003 0 010-1.33l4.672-5.108L.252 2.18a1.003 1.003 0 010-1.33.809.809 0 011.216 0l5.28 5.773A.984.984 0 017 7.287z" fill="#222B32"/></svg><svg fill="none" viewBox="0 0 8 14" id="ic_swiper-prev" xmlns="http://www.w3.org/2000/svg"><path d="M.214 7.287c0 .24.084.482.252.665l5.28 5.773a.81.81 0 001.216 0 1.003 1.003 0 000-1.33L2.29 7.287 6.962 2.18a1.003 1.003 0 000-1.33.809.809 0 00-1.216 0L.466 6.623a.984.984 0 00-.252.664z" fill="#222B32"/></svg><svg viewBox="0 0 16 14" id="ic_tg" xmlns="http://www.w3.org/2000/svg"><path d="M6.279 9.096l-.265 3.723c.379 0 .543-.163.74-.358l1.775-1.697 3.679 2.695c.674.376 1.15.178 1.332-.621l2.415-11.316c.214-.997-.36-1.388-1.018-1.143L.743 5.813c-.969.376-.954.916-.165 1.161l3.629 1.129 8.43-5.274c.396-.263.757-.118.46.145L6.279 9.096z"/></svg><svg viewBox="0 0 16 13" id="ic_tw" xmlns="http://www.w3.org/2000/svg"><path d="M16 1.543a6.872 6.872 0 01-1.645 1.696 9.368 9.368 0 01-.376 3.066 9.453 9.453 0 01-1.177 2.517 9.91 9.91 0 01-1.868 2.143c-.724.615-1.597 1.11-2.62 1.482a9.666 9.666 0 01-3.278.548A9.106 9.106 0 010 11.523c.237.027.5.04.792.04a6.42 6.42 0 004.07-1.4 3.214 3.214 0 01-1.908-.65 3.235 3.235 0 01-1.157-1.625c.223.034.43.051.62.051.29 0 .578-.037.862-.112a3.259 3.259 0 01-1.888-1.126A3.201 3.201 0 01.65 4.609v-.04c.46.257.954.395 1.482.416a3.275 3.275 0 01-1.066-1.168A3.195 3.195 0 01.67 2.254c0-.596.149-1.147.447-1.655a9.373 9.373 0 002.985 2.426A9.22 9.22 0 007.878 4.03a3.643 3.643 0 01-.081-.75c0-.908.318-1.68.954-2.316A3.169 3.169 0 0111.076 0c.948 0 1.746.345 2.396 1.036a6.43 6.43 0 002.081-.792 3.184 3.184 0 01-1.441 1.807A6.534 6.534 0 0016 1.543z"/></svg><svg viewBox="0 0 20 20" id="ic_vb" xmlns="http://www.w3.org/2000/svg"><path d="M17.745 1.948c-.524-.457-2.64-1.914-7.36-1.934 0 0-5.565-.316-8.276 2.043C.602 3.487.07 5.584.013 8.18c-.058 2.597-.128 7.464 4.819 8.784h.004l-.004 2.015s-.033.817.535.98c.684.204 1.088-.417 1.743-1.085.358-.367.852-.906 1.227-1.316 3.386.27 5.985-.348 6.281-.438.684-.21 4.552-.68 5.178-5.546.65-5.023-.313-8.194-2.051-9.627zm.572 9.26c-.531 4.062-3.666 4.32-4.242 4.496-.247.074-2.534.613-5.404.437 0 0-2.142 2.449-2.81 3.086-.218.207-.457.187-.452-.223 0-.27.016-3.347.016-3.347-.004 0-.004 0 0 0-4.193-1.102-3.946-5.246-3.9-7.413.045-2.168.477-3.945 1.754-5.14 2.294-1.973 7.019-1.68 7.019-1.68 3.99.016 5.902 1.156 6.347 1.539 1.47 1.195 2.22 4.054 1.672 8.245zm-5.725-3.156c.016.336-.515.36-.532.024-.045-.86-.469-1.278-1.342-1.324-.354-.02-.322-.524.029-.504 1.149.058 1.787.683 1.845 1.804zm.836.442c.041-1.656-1.05-2.953-3.122-3.098-.35-.023-.313-.527.037-.504 2.389.164 3.662 1.723 3.616 3.613-.004.336-.54.32-.531-.011zm1.936.523c.004.336-.532.34-.532.004-.024-3.183-2.26-4.918-4.975-4.937-.35-.004-.35-.504 0-.504 3.036.02 5.478 2.008 5.507 5.437zm-.466 3.832v.007c-.444.742-1.276 1.563-2.133 1.3l-.008-.01c-.87-.231-2.917-1.231-4.21-2.208-.667-.5-1.277-1.09-1.746-1.656a12.643 12.643 0 01-1.269-1.82c-.877-1.503-1.07-2.175-1.07-2.175-.277-.813.584-1.602 1.37-2.023h.009c.379-.188.741-.125.984.152 0 0 .511.578.73.863.205.266.481.691.626.93.25.425.094.859-.153 1.039l-.494.375c-.251.19-.218.546-.218.546s.733 2.629 3.472 3.293c0 0 .375.031.576-.207l.396-.469c.19-.234.646-.383 1.095-.144.606.324 1.376.828 1.887 1.285.288.222.354.562.156.921z"/></svg><svg viewBox="0 0 19 11" id="ic_vk" xmlns="http://www.w3.org/2000/svg"><path d="M17.57 8.059c-.393-.414-.84-.785-1.27-1.143-.154-.128-.313-.26-.466-.39-.438-.377-.454-.519-.107-.947.24-.295.495-.59.742-.876.224-.26.455-.527.677-.796l.045-.055c.424-.515.862-1.047 1.095-1.689.06-.17.124-.418-.021-.627-.145-.208-.427-.272-.627-.301a1.946 1.946 0 00-.287-.017l-2.774-.002h-.023c-.42 0-.702.174-.864.53a13.74 13.74 0 01-.519 1.05c-.385.688-.875 1.48-1.584 2.141l-.03.028c-.084.08-.179.169-.248.169a.133.133 0 01-.035-.006c-.147-.05-.246-.362-.241-.507v-.006L11.03 1.8l-.003-.03c-.07-.457-.226-.742-.817-.843a.278.278 0 00-.048-.004H7.278c-.47 0-.729.168-.972.419-.066.067-.202.206-.135.376.07.172.292.208.365.22.361.06.564.254.622.593.1.588.113 1.216.039 1.975a1.49 1.49 0 01-.129.514c-.015.032-.07.138-.127.138-.018 0-.07-.006-.165-.063-.224-.135-.387-.327-.578-.564A12.863 12.863 0 014.53 1.817a.986.986 0 00-.92-.592c-.46-.006-.878-.01-1.276-.01-.435 0-.839.004-1.232.012-.337.005-.57.093-.693.263s-.115.394.024.664C1.544 4.32 2.55 5.896 3.697 7.261c.804.956 1.61 1.618 2.536 2.082.977.49 2.071.729 3.345.729.145 0 .294-.003.445-.01.74-.031 1.015-.266 1.05-.9.016-.323.057-.662.238-.951.114-.183.22-.183.256-.183.067 0 .151.028.241.079.161.092.3.216.413.324l.317.31c.228.224.464.456.71.675.538.481 1.132.693 1.813.647h2.56a.755.755 0 00.602-.34c.16-.248.157-.564-.008-.847a4.587 4.587 0 00-.645-.817z"/></svg><svg viewBox="0 0 16 17" id="ic_wa" xmlns="http://www.w3.org/2000/svg"><path d="M9.719 9.385c.27-.34.451-.51.541-.51.09 0 .428.153 1.01.458.591.306.904.49.938.552.014.035.021.087.021.157 0 .229-.059.493-.177.791-.111.271-.358.5-.74.688-.381.18-.736.27-1.062.27-.396 0-1.056-.215-1.98-.645a5.945 5.945 0 01-1.77-1.23C6 9.41 5.486 8.768 4.958 7.99c-.5-.743-.746-1.417-.74-2.021v-.084c.022-.632.279-1.18.772-1.645a.788.788 0 01.541-.23c.042 0 .104.007.188.021.083.007.15.01.198.01.132 0 .222.025.27.074.056.041.112.135.167.28.056.14.17.445.344.918.174.472.26.732.26.78 0 .147-.121.348-.364.605-.236.25-.354.41-.354.48 0 .048.017.1.052.155.236.507.59.983 1.062 1.427.39.368.913.72 1.573 1.053.083.048.16.072.23.072.103 0 .29-.166.562-.5zm-1.573 5.01a6.33 6.33 0 002.531-.52 6.581 6.581 0 002.094-1.396 6.613 6.613 0 001.396-2.083c.347-.813.52-1.66.52-2.542a6.33 6.33 0 00-.52-2.531 6.582 6.582 0 00-1.396-2.094 6.581 6.581 0 00-2.094-1.396 6.329 6.329 0 00-2.531-.52c-.882 0-1.73.173-2.542.52-.805.348-1.5.813-2.083 1.396a6.582 6.582 0 00-1.396 2.094 6.329 6.329 0 00-.52 2.531c0 1.41.416 2.688 1.25 3.833l-.824 2.428 2.521-.803a6.406 6.406 0 003.594 1.084zM5.094.626A7.669 7.669 0 018.146 0c1.062 0 2.076.208 3.041.625a7.918 7.918 0 012.51 1.677 7.918 7.918 0 011.678 2.51c.417.966.625 1.98.625 3.042 0 1.063-.208 2.08-.625 3.052a7.947 7.947 0 01-1.677 2.5 7.916 7.916 0 01-2.51 1.677 7.594 7.594 0 01-3.042.625 7.735 7.735 0 01-3.802-.979L0 16.125l1.417-4.219A7.666 7.666 0 01.292 7.854c0-1.062.208-2.076.625-3.042a7.917 7.917 0 011.677-2.51 7.948 7.948 0 012.5-1.677z"/></svg></svg>